<mxfile host="app.diagrams.net" modified="2023-04-20T21:09:01.584Z" agent="Mozilla/5.0 (Windows NT 10.0; Win64; x64) AppleWebKit/537.36 (KHTML, like Gecko) Chrome/112.0.0.0 Safari/537.36 Edg/112.0.1722.48" etag="nPqurHuhZYswkA5c6RNH" version="21.1.5" type="github">
  <diagram id="C5RBs43oDa-KdzZeNtuy" name="Page-1">
    <mxGraphModel dx="1241" dy="716" grid="1" gridSize="10" guides="1" tooltips="1" connect="1" arrows="1" fold="1" page="1" pageScale="1" pageWidth="827" pageHeight="1169" math="0" shadow="0">
      <root>
        <mxCell id="WIyWlLk6GJQsqaUBKTNV-0" />
        <mxCell id="WIyWlLk6GJQsqaUBKTNV-1" parent="WIyWlLk6GJQsqaUBKTNV-0" />
        <mxCell id="Aqjsc2nanV0xPT_cFaSl-13" style="edgeStyle=orthogonalEdgeStyle;rounded=0;orthogonalLoop=1;jettySize=auto;html=1;entryX=0.5;entryY=0;entryDx=0;entryDy=0;" edge="1" parent="WIyWlLk6GJQsqaUBKTNV-1" source="Aqjsc2nanV0xPT_cFaSl-1" target="Aqjsc2nanV0xPT_cFaSl-2">
          <mxGeometry relative="1" as="geometry" />
        </mxCell>
        <mxCell id="Aqjsc2nanV0xPT_cFaSl-1" value="Main Function" style="rounded=0;whiteSpace=wrap;html=1;" vertex="1" parent="WIyWlLk6GJQsqaUBKTNV-1">
          <mxGeometry x="20" y="90" width="120" height="60" as="geometry" />
        </mxCell>
        <mxCell id="Aqjsc2nanV0xPT_cFaSl-14" style="edgeStyle=orthogonalEdgeStyle;rounded=0;orthogonalLoop=1;jettySize=auto;html=1;entryX=0.415;entryY=0.057;entryDx=0;entryDy=0;entryPerimeter=0;" edge="1" parent="WIyWlLk6GJQsqaUBKTNV-1" source="Aqjsc2nanV0xPT_cFaSl-2" target="Aqjsc2nanV0xPT_cFaSl-3">
          <mxGeometry relative="1" as="geometry" />
        </mxCell>
        <mxCell id="Aqjsc2nanV0xPT_cFaSl-2" value="Login" style="rounded=0;whiteSpace=wrap;html=1;" vertex="1" parent="WIyWlLk6GJQsqaUBKTNV-1">
          <mxGeometry x="20" y="250" width="120" height="60" as="geometry" />
        </mxCell>
        <mxCell id="Aqjsc2nanV0xPT_cFaSl-20" style="edgeStyle=orthogonalEdgeStyle;rounded=0;orthogonalLoop=1;jettySize=auto;html=1;entryX=0.658;entryY=0.987;entryDx=0;entryDy=0;entryPerimeter=0;" edge="1" parent="WIyWlLk6GJQsqaUBKTNV-1" source="Aqjsc2nanV0xPT_cFaSl-3" target="Aqjsc2nanV0xPT_cFaSl-5">
          <mxGeometry relative="1" as="geometry" />
        </mxCell>
        <mxCell id="Aqjsc2nanV0xPT_cFaSl-21" style="edgeStyle=orthogonalEdgeStyle;rounded=0;orthogonalLoop=1;jettySize=auto;html=1;entryX=0.022;entryY=0.62;entryDx=0;entryDy=0;entryPerimeter=0;" edge="1" parent="WIyWlLk6GJQsqaUBKTNV-1" source="Aqjsc2nanV0xPT_cFaSl-3" target="Aqjsc2nanV0xPT_cFaSl-9">
          <mxGeometry relative="1" as="geometry" />
        </mxCell>
        <mxCell id="Aqjsc2nanV0xPT_cFaSl-22" style="edgeStyle=orthogonalEdgeStyle;rounded=0;orthogonalLoop=1;jettySize=auto;html=1;entryX=0;entryY=0.5;entryDx=0;entryDy=0;" edge="1" parent="WIyWlLk6GJQsqaUBKTNV-1" source="Aqjsc2nanV0xPT_cFaSl-3" target="Aqjsc2nanV0xPT_cFaSl-10">
          <mxGeometry relative="1" as="geometry">
            <Array as="points">
              <mxPoint x="240" y="450" />
              <mxPoint x="240" y="620" />
            </Array>
          </mxGeometry>
        </mxCell>
        <mxCell id="Aqjsc2nanV0xPT_cFaSl-3" value="Menu" style="rounded=0;whiteSpace=wrap;html=1;" vertex="1" parent="WIyWlLk6GJQsqaUBKTNV-1">
          <mxGeometry x="30" y="420" width="120" height="60" as="geometry" />
        </mxCell>
        <mxCell id="Aqjsc2nanV0xPT_cFaSl-19" style="edgeStyle=orthogonalEdgeStyle;rounded=0;orthogonalLoop=1;jettySize=auto;html=1;" edge="1" parent="WIyWlLk6GJQsqaUBKTNV-1" source="Aqjsc2nanV0xPT_cFaSl-4" target="Aqjsc2nanV0xPT_cFaSl-12">
          <mxGeometry relative="1" as="geometry" />
        </mxCell>
        <mxCell id="Aqjsc2nanV0xPT_cFaSl-4" value="Insert" style="rounded=0;whiteSpace=wrap;html=1;" vertex="1" parent="WIyWlLk6GJQsqaUBKTNV-1">
          <mxGeometry x="540" y="260" width="120" height="60" as="geometry" />
        </mxCell>
        <mxCell id="Aqjsc2nanV0xPT_cFaSl-15" style="edgeStyle=orthogonalEdgeStyle;rounded=0;orthogonalLoop=1;jettySize=auto;html=1;entryX=0;entryY=0.5;entryDx=0;entryDy=0;" edge="1" parent="WIyWlLk6GJQsqaUBKTNV-1" source="Aqjsc2nanV0xPT_cFaSl-5" target="Aqjsc2nanV0xPT_cFaSl-12">
          <mxGeometry relative="1" as="geometry" />
        </mxCell>
        <mxCell id="Aqjsc2nanV0xPT_cFaSl-5" value="Delete" style="rounded=0;whiteSpace=wrap;html=1;" vertex="1" parent="WIyWlLk6GJQsqaUBKTNV-1">
          <mxGeometry x="200" y="310" width="120" height="60" as="geometry" />
        </mxCell>
        <mxCell id="Aqjsc2nanV0xPT_cFaSl-16" style="edgeStyle=orthogonalEdgeStyle;rounded=0;orthogonalLoop=1;jettySize=auto;html=1;entryX=0;entryY=0;entryDx=0;entryDy=0;" edge="1" parent="WIyWlLk6GJQsqaUBKTNV-1" source="Aqjsc2nanV0xPT_cFaSl-6" target="Aqjsc2nanV0xPT_cFaSl-12">
          <mxGeometry relative="1" as="geometry" />
        </mxCell>
        <mxCell id="Aqjsc2nanV0xPT_cFaSl-6" value="Update" style="rounded=0;whiteSpace=wrap;html=1;" vertex="1" parent="WIyWlLk6GJQsqaUBKTNV-1">
          <mxGeometry x="280" y="140" width="120" height="60" as="geometry" />
        </mxCell>
        <mxCell id="Aqjsc2nanV0xPT_cFaSl-17" style="edgeStyle=orthogonalEdgeStyle;rounded=0;orthogonalLoop=1;jettySize=auto;html=1;entryX=0.5;entryY=0;entryDx=0;entryDy=0;" edge="1" parent="WIyWlLk6GJQsqaUBKTNV-1" source="Aqjsc2nanV0xPT_cFaSl-7" target="Aqjsc2nanV0xPT_cFaSl-12">
          <mxGeometry relative="1" as="geometry" />
        </mxCell>
        <mxCell id="Aqjsc2nanV0xPT_cFaSl-7" value="Display" style="rounded=0;whiteSpace=wrap;html=1;" vertex="1" parent="WIyWlLk6GJQsqaUBKTNV-1">
          <mxGeometry x="480" y="140" width="120" height="60" as="geometry" />
        </mxCell>
        <mxCell id="Aqjsc2nanV0xPT_cFaSl-18" style="edgeStyle=orthogonalEdgeStyle;rounded=0;orthogonalLoop=1;jettySize=auto;html=1;entryX=0.5;entryY=1;entryDx=0;entryDy=0;" edge="1" parent="WIyWlLk6GJQsqaUBKTNV-1" source="Aqjsc2nanV0xPT_cFaSl-8" target="Aqjsc2nanV0xPT_cFaSl-12">
          <mxGeometry relative="1" as="geometry" />
        </mxCell>
        <mxCell id="Aqjsc2nanV0xPT_cFaSl-8" value="Search" style="rounded=0;whiteSpace=wrap;html=1;" vertex="1" parent="WIyWlLk6GJQsqaUBKTNV-1">
          <mxGeometry x="390" y="330" width="120" height="60" as="geometry" />
        </mxCell>
        <mxCell id="Aqjsc2nanV0xPT_cFaSl-9" value="About" style="rounded=0;whiteSpace=wrap;html=1;" vertex="1" parent="WIyWlLk6GJQsqaUBKTNV-1">
          <mxGeometry x="410" y="460" width="120" height="60" as="geometry" />
        </mxCell>
        <mxCell id="Aqjsc2nanV0xPT_cFaSl-10" value="Exit&lt;br&gt;" style="rounded=0;whiteSpace=wrap;html=1;" vertex="1" parent="WIyWlLk6GJQsqaUBKTNV-1">
          <mxGeometry x="430" y="590" width="120" height="60" as="geometry" />
        </mxCell>
        <mxCell id="Aqjsc2nanV0xPT_cFaSl-12" value="File" style="rounded=0;whiteSpace=wrap;html=1;" vertex="1" parent="WIyWlLk6GJQsqaUBKTNV-1">
          <mxGeometry x="370" y="230" width="120" height="60" as="geometry" />
        </mxCell>
        <mxCell id="Aqjsc2nanV0xPT_cFaSl-23" value="Data Flow Diagram for Medicine Record Management System" style="shape=note;whiteSpace=wrap;html=1;backgroundOutline=1;fontColor=#000000;darkOpacity=0.05;fillColor=#FFF9B2;strokeColor=none;fillStyle=solid;direction=west;gradientDirection=north;gradientColor=#FFF2A1;shadow=1;size=20;pointerEvents=1;" vertex="1" parent="WIyWlLk6GJQsqaUBKTNV-1">
          <mxGeometry x="660" y="10" width="140" height="160" as="geometry" />
        </mxCell>
      </root>
    </mxGraphModel>
  </diagram>
</mxfile>
